<svg height="32" viewBox="0 0 32 32" width="32" xmlns="http://www.w3.org/2000/svg"><path d="m16 21h2v-3h-7v3h2c0 4.418278 3.5907123 8 8 8 4.418278 0 8-3.5818905 8-7.996098v-17.003902h-3v17.0078595c0 2.7570831-2.2441952 4.9921405-5 4.9921405-2.7614237 0-5-2.2458162-5-5 0 0 0 1.9747925 0 0zm11-12v-4h1v4zm-23 2.5v.4989013c0 2.7620306 2.23408975 5.0010987 4.99408095 5.0010987h1.00298972c.55390253 0 1.25464073-.3595877 1.58088313-.8256483l1.7760153-2.5371647c.6329354-.9041934 1.6605587-.8994198 2.2878249 0l1.7694494 2.5371647c.318015.455993 1.0145079.8256483 1.5806004.8256483h1.0048437c2.7632532 0 5.0033125-2.2392729 5.0033125-5.0010987v-.4989013c0-3.03756612-2.4707194-5.5-5.4900728-5.5h-10.01985439c-3.03208349 0-5.49007281 2.46861471-5.49007281 5.5zm15.5099272-4.5c2.4714191 0 4.4900728 2.01906999 4.4900728 4.5v.4989013c0 2.209519-1.7923221 4.0010987-4.0033125 4.0010987h-1.0048437c-.2343759 0-.6266174-.2058974-.7603725-.3976852l-1.7694494-2.5371647c-1.0257821-1.4708407-2.8968083-1.4735346-3.9272847-.0014254l-1.7760153 2.5371646c-.1364799.1949713-.5294555.3991107-.76165123.3991107h-1.00298972c-2.20670064 0-3.99408095-1.7903467-3.99408095-4.0010987v-.4989013c0-2.48181251 2.01298219-4.5 4.49007281-4.5zm0 1c1.9190882 0 3.4900728 1.56454128 3.4900728 3.4849262v.4967527c0 1.6500045-1.3445141 2.9881736-3.0033125 2.9881736h-1.0048437c.0934842 0 .0071235-.0451377.0598554.0301475l-1.7694493-2.5262376c-1.4231482-2.0318245-4.1375755-2.0357159-5.5667446-.0028387l-1.77601533 2.5262376c.05084877-.0723282-.03618995-.0273088.0575807-.0273088h-1.00298972c-1.65404434 0-2.99408095-1.3364798-2.99408095-2.9881736v-.4967527c0-1.92179247 1.56584589-3.4849262 3.49007281-3.4849262z" fill-rule="evenodd"/></svg>